<?xml version="1.0" encoding="utf-8"?>
<!-- Generator: Adobe Illustrator 19.0.0, SVG Export Plug-In . SVG Version: 6.00 Build 0)  -->
<svg version="1.1" id="Layer_1" xmlns="http://www.w3.org/2000/svg" xmlns:xlink="http://www.w3.org/1999/xlink" x="0px" y="0px"
	 viewBox="0 0 19 19" enable-background="new 0 0 19 19" xml:space="preserve">
<path fill="#F04B23" d="M0,15.5V19h3C1.6,18.2,0.5,16.9,0,15.5z"/>
<path fill="#F04B23" d="M12.7,11.9c0-3.2-2.6-6.3-6.4-6.4C3.5,5.4,1.4,6.4,0,7.9v3.3c1-2.8,3.6-4.1,5.9-4.1c2.8,0,4.9,2.1,5,4.5
	c0,2.3-0.9,4-3.5,4.4c-1.4,0.2-3.6-0.6-3.5-2.7c0.1-1.1,0.9-1.7,1.9-1.7c-1,1.3,0.3,2.2,1.2,2c1.1-0.2,1.6-1.2,1.6-2
	c0-0.8-0.8-2.1-2.6-2.1C3.5,9.7,2,11.4,2,13.5c-0.1,2.6,2.4,4.3,4.9,4.3C10.5,17.9,12.7,15.5,12.7,11.9z"/>
<path fill="#F04B23" d="M0,0v5.5c1.6-1.3,3.8-2.1,6.3-2.1c5.4,0,8.8,3.8,8.8,8.5c0,3.3-1.5,5.8-4,7.1H19V0H0z"/>
</svg>
