<?xml version="1.0" encoding="UTF-8"?>
<svg id="Ebene_1" data-name="Ebene 1" xmlns="http://www.w3.org/2000/svg" viewBox="0 0 1350 1350">
  <path d="M1262,0c10.54,2.06,20.82,4.42,30.67,8.83,23.3,10.41,44.14,32.33,52.36,56.64,2.16,6.39,3.06,13.1,4.96,19.54v1180c-1.91,6.43-2.8,13.15-4.96,19.54-8.22,24.31-29.07,46.23-52.36,56.64-9.85,4.4-20.13,6.77-30.67,8.83H88c-10.54-2.06-20.82-4.42-30.67-8.83-23.3-10.41-44.14-32.33-52.36-56.64-2.16-6.39-3.06-13.1-4.96-19.54V85C5.9,41.62,44.08,4.05,88,0h1174ZM302.79,229.29c-149.54,8.47-137.81,217.59,13.7,209.7,139-7.25,141.9-193.55,11-208.98-8.07-.95-16.59-1.18-24.7-.72ZM1138,1130l.05-375.55c-5.17-118.45-63.49-224.33-188.71-243.29-78.99-11.96-152.88,6.54-204.85,68.82-7.23,8.67-13.02,18.73-20.49,27.01v-85h-202v608h202l-.04-356.54c5.43-69.34,65.32-118.49,135.24-104.16,57.98,11.89,74.98,68.86,77.84,121.16l-.04,339.54h201ZM410,522h-202v608h202v-608Z"/>
</svg>